<svg xmlns="http://www.w3.org/2000/svg" xmlns:xlink="http://www.w3.org/1999/xlink" width="60" zoomAndPan="magnify" viewBox="0 0 600 599.999999" height="60" preserveAspectRatio="xMidYMid meet" version="1.0"><defs><clipPath id="3ee0d1e1c8"><path d="M 60 66.257812 L 521.917969 66.257812 L 521.917969 326.941406 L 60 326.941406 Z M 60 66.257812 " clip-rule="nonzero"/></clipPath><clipPath id="b7c372f59c"><path d="M 347.015625 261.125 L 546.957031 261.125 L 546.957031 461.066406 L 347.015625 461.066406 Z M 347.015625 261.125 " clip-rule="nonzero"/></clipPath><clipPath id="139a441387"><path d="M 446.984375 261.125 C 391.773438 261.125 347.015625 305.882812 347.015625 361.09375 C 347.015625 416.308594 391.773438 461.066406 446.984375 461.066406 C 502.199219 461.066406 546.957031 416.308594 546.957031 361.09375 C 546.957031 305.882812 502.199219 261.125 446.984375 261.125 Z M 446.984375 261.125 " clip-rule="nonzero"/></clipPath><clipPath id="0e170d7ef7"><path d="M 76.574219 261.125 L 483.664062 261.125 L 483.664062 507.785156 L 76.574219 507.785156 Z M 76.574219 261.125 " clip-rule="nonzero"/></clipPath><clipPath id="8c2d4cb207"><path d="M 280.121094 261.125 L 483.664062 507.785156 L 76.574219 507.785156 Z M 280.121094 261.125 " clip-rule="nonzero"/></clipPath><clipPath id="999eab6d73"><path d="M 49.710938 239.523438 L 380.726562 239.523438 L 380.726562 440.085938 L 49.710938 440.085938 Z M 49.710938 239.523438 " clip-rule="nonzero"/></clipPath><clipPath id="10fcb9ed83"><path d="M 215.21875 239.523438 L 380.726562 440.085938 L 49.710938 440.085938 Z M 215.21875 239.523438 " clip-rule="nonzero"/></clipPath><clipPath id="8c8dd9a2bc"><path d="M 43.21875 291.453125 L 374.234375 291.453125 L 374.234375 492.019531 L 43.21875 492.019531 Z M 43.21875 291.453125 " clip-rule="nonzero"/></clipPath><clipPath id="9b3d5bd30a"><path d="M 208.726562 291.453125 L 374.234375 492.019531 L 43.21875 492.019531 Z M 208.726562 291.453125 " clip-rule="nonzero"/></clipPath></defs><g clip-path="url(#3ee0d1e1c8)"><path fill="#5ce1e6" d="M 60 66.257812 L 521.917969 66.257812 L 521.917969 326.941406 L 60 326.941406 Z M 60 66.257812 " fill-opacity="1" fill-rule="nonzero"/></g><g clip-path="url(#b7c372f59c)"><g clip-path="url(#139a441387)"><path fill="#7ed957" d="M 347.015625 261.125 L 546.957031 261.125 L 546.957031 461.066406 L 347.015625 461.066406 Z M 347.015625 261.125 " fill-opacity="1" fill-rule="nonzero"/></g></g><g clip-path="url(#0e170d7ef7)"><g clip-path="url(#8c2d4cb207)"><path fill="#ffbd59" d="M 76.574219 261.125 L 483.664062 261.125 L 483.664062 507.785156 L 76.574219 507.785156 Z M 76.574219 261.125 " fill-opacity="1" fill-rule="nonzero"/></g></g><g clip-path="url(#999eab6d73)"><g clip-path="url(#10fcb9ed83)"><path fill="#ffbd59" d="M 49.710938 239.523438 L 380.726562 239.523438 L 380.726562 440.085938 L 49.710938 440.085938 Z M 49.710938 239.523438 " fill-opacity="1" fill-rule="nonzero"/></g></g><g clip-path="url(#8c8dd9a2bc)"><g clip-path="url(#9b3d5bd30a)"><path fill="#ffbd59" d="M 43.21875 291.453125 L 374.234375 291.453125 L 374.234375 492.019531 L 43.21875 492.019531 Z M 43.21875 291.453125 " fill-opacity="1" fill-rule="nonzero"/></g></g><path fill="#000000" d="M 92.941406 93.539062 L 92.941406 93.691406 C 96.871094 143.011719 103.320312 233.910156 103.320312 300 C 103.320312 306.269531 103.289062 312.75 103.171875 319.410156 L 203.789062 218.789062 L 223.980469 198.601562 L 245.128906 217.738281 L 334.230469 298.351562 L 413.789062 218.789062 L 433.171875 199.410156 L 454.199219 216.960938 L 497.519531 253.050781 C 499.410156 195.601562 504 132.058594 507.058594 93.691406 L 507.058594 93.511719 C 507.015625 93.417969 506.957031 93.335938 506.878906 93.269531 C 506.808594 93.203125 506.730469 93.152344 506.640625 93.121094 L 506.488281 93.121094 C 457.171875 97.261719 366.179688 104.128906 300 104.128906 C 233.820312 104.128906 142.859375 97.261719 93.511719 93.121094 C 93.46875 93.117188 93.429688 93.117188 93.390625 93.121094 L 93.359375 93.121094 C 93.269531 93.152344 93.191406 93.203125 93.121094 93.269531 C 93.042969 93.335938 92.984375 93.417969 92.941406 93.511719 Z M 497.039062 330.78125 L 436.828125 280.589844 L 378.78125 338.671875 L 502.980469 451.050781 C 500.171875 410.992188 498.203125 370.890625 497.070312 330.75 Z M 33.179688 501.300781 C 35.519531 472.050781 38.640625 429.089844 40.828125 385.769531 L 38.820312 383.761719 L 41.039062 381.539062 C 42.4375 354.378906 43.199219 327.199219 43.320312 300 C 43.320312 236.578125 37.078125 147.808594 33.121094 98.460938 C 33.035156 97.371094 32.976562 96.277344 32.949219 95.183594 C 32.921875 94.089844 32.925781 92.996094 32.957031 91.902344 C 32.992188 90.808594 33.050781 89.714844 33.144531 88.625 C 33.234375 87.535156 33.355469 86.449219 33.507812 85.363281 C 33.65625 84.28125 33.835938 83.199219 34.046875 82.128906 C 34.253906 81.054688 34.492188 79.984375 34.757812 78.925781 C 35.023438 77.863281 35.320312 76.808594 35.644531 75.765625 C 35.96875 74.71875 36.320312 73.683594 36.699219 72.65625 C 37.078125 71.628906 37.484375 70.617188 37.921875 69.613281 C 38.355469 68.605469 38.816406 67.617188 39.304688 66.636719 C 39.792969 65.65625 40.308594 64.691406 40.847656 63.742188 C 41.390625 62.789062 41.957031 61.855469 42.546875 60.933594 C 43.140625 60.011719 43.753906 59.109375 44.394531 58.222656 C 45.035156 57.335938 45.699219 56.464844 46.386719 55.613281 C 47.074219 54.761719 47.785156 53.929688 48.519531 53.117188 C 49.25 52.304688 50.003906 51.511719 50.78125 50.742188 C 51.554688 49.96875 52.351562 49.21875 53.167969 48.488281 C 53.984375 47.761719 54.820312 47.054688 55.671875 46.371094 C 56.527344 45.6875 57.398438 45.027344 58.289062 44.390625 C 59.179688 43.753906 60.085938 43.140625 61.011719 42.554688 C 61.933594 41.96875 62.871094 41.40625 63.824219 40.871094 C 64.78125 40.332031 65.746094 39.824219 66.726562 39.339844 C 67.710938 38.855469 68.703125 38.398438 69.710938 37.96875 C 70.714844 37.539062 71.734375 37.136719 72.761719 36.761719 C 73.789062 36.386719 74.824219 36.039062 75.871094 35.71875 C 76.917969 35.402344 77.972656 35.109375 79.035156 34.847656 C 80.097656 34.585938 81.167969 34.355469 82.242188 34.148438 C 83.316406 33.945312 84.398438 33.773438 85.480469 33.625 C 86.566406 33.480469 87.65625 33.363281 88.746094 33.277344 C 89.835938 33.191406 90.929688 33.136719 92.023438 33.109375 C 93.117188 33.082031 94.210938 33.082031 95.304688 33.117188 C 96.398438 33.148438 97.488281 33.207031 98.578125 33.300781 C 147.929688 37.46875 236.640625 44.101562 300 44.101562 C 363.359375 44.101562 452.070312 37.46875 501.421875 33.300781 C 502.507812 33.210938 503.601562 33.148438 504.695312 33.117188 C 505.789062 33.082031 506.878906 33.082031 507.972656 33.109375 C 509.066406 33.136719 510.160156 33.191406 511.25 33.277344 C 512.339844 33.367188 513.425781 33.480469 514.507812 33.625 C 515.59375 33.773438 516.671875 33.945312 517.746094 34.148438 C 518.820312 34.351562 519.890625 34.585938 520.953125 34.847656 C 522.011719 35.109375 523.066406 35.398438 524.113281 35.71875 C 525.160156 36.035156 526.195312 36.382812 527.222656 36.757812 C 528.25 37.132812 529.265625 37.535156 530.273438 37.964844 C 531.277344 38.394531 532.273438 38.847656 533.253906 39.332031 C 534.234375 39.816406 535.199219 40.324219 536.152344 40.863281 C 537.105469 41.398438 538.046875 41.957031 538.96875 42.546875 C 539.890625 43.132812 540.796875 43.742188 541.6875 44.378906 C 542.578125 45.015625 543.449219 45.671875 544.304688 46.355469 C 545.15625 47.039062 545.992188 47.746094 546.808594 48.472656 C 547.625 49.199219 548.421875 49.949219 549.195312 50.722656 C 549.972656 51.492188 550.726562 52.285156 551.457031 53.097656 C 552.191406 53.90625 552.898438 54.738281 553.585938 55.589844 C 554.273438 56.441406 554.9375 57.308594 555.578125 58.195312 C 556.21875 59.082031 556.835938 59.984375 557.429688 60.902344 C 558.019531 61.824219 558.585938 62.757812 559.128906 63.707031 C 559.667969 64.660156 560.183594 65.621094 560.671875 66.601562 C 561.160156 67.578125 561.621094 68.570312 562.058594 69.574219 C 562.492188 70.578125 562.902344 71.589844 563.28125 72.617188 C 563.660156 73.640625 564.011719 74.675781 564.335938 75.71875 C 564.660156 76.765625 564.957031 77.816406 565.226562 78.878906 C 565.492188 79.9375 565.730469 81.003906 565.941406 82.078125 C 566.148438 83.152344 566.332031 84.230469 566.480469 85.3125 C 566.632812 86.394531 566.753906 87.480469 566.847656 88.570312 C 566.9375 89.660156 567 90.753906 567.035156 91.84375 C 567.070312 92.9375 567.070312 94.03125 567.046875 95.125 C 567.019531 96.21875 566.964844 97.308594 566.878906 98.398438 C 562.949219 147.78125 556.679688 236.550781 556.679688 299.96875 C 556.679688 363.269531 562.921875 451.859375 566.878906 501.300781 C 566.964844 502.394531 567.023438 503.488281 567.046875 504.585938 C 567.074219 505.683594 567.070312 506.78125 567.039062 507.878906 C 567.003906 508.976562 566.941406 510.070312 566.847656 511.164062 C 566.757812 512.257812 566.632812 513.351562 566.480469 514.4375 C 566.328125 515.523438 566.148438 516.605469 565.9375 517.683594 C 565.726562 518.761719 565.484375 519.832031 565.21875 520.894531 C 564.949219 521.960938 564.652344 523.015625 564.324219 524.0625 C 563.996094 525.113281 563.644531 526.148438 563.261719 527.179688 C 562.878906 528.207031 562.464844 529.226562 562.027344 530.230469 C 561.589844 531.238281 561.125 532.230469 560.632812 533.210938 C 560.140625 534.195312 559.621094 535.160156 559.078125 536.113281 C 558.53125 537.066406 557.964844 538.003906 557.367188 538.925781 C 556.773438 539.847656 556.152344 540.753906 555.507812 541.640625 C 554.863281 542.53125 554.191406 543.398438 553.5 544.253906 C 552.808594 545.105469 552.09375 545.9375 551.355469 546.75 C 550.621094 547.5625 549.859375 548.355469 549.082031 549.128906 C 548.300781 549.898438 547.5 550.648438 546.679688 551.378906 C 545.855469 552.105469 545.015625 552.8125 544.15625 553.496094 C 543.296875 554.175781 542.417969 554.835938 541.523438 555.472656 C 540.628906 556.105469 539.71875 556.714844 538.789062 557.300781 C 537.859375 557.886719 536.917969 558.445312 535.957031 558.980469 C 535 559.515625 534.027344 560.023438 533.039062 560.503906 C 532.054688 560.984375 531.054688 561.441406 530.042969 561.867188 C 529.03125 562.292969 528.007812 562.695312 526.976562 563.066406 C 525.945312 563.4375 524.902344 563.78125 523.851562 564.09375 C 522.796875 564.410156 521.738281 564.695312 520.671875 564.953125 C 519.605469 565.210938 518.53125 565.4375 517.453125 565.636719 C 516.375 565.835938 515.289062 566.007812 514.199219 566.144531 C 513.113281 566.285156 512.019531 566.398438 510.925781 566.476562 C 509.832031 566.558594 508.734375 566.609375 507.636719 566.628906 C 506.539062 566.652344 505.441406 566.644531 504.34375 566.605469 C 503.25 566.566406 502.152344 566.496094 501.058594 566.398438 C 451.648438 561.988281 363.179688 554.96875 300 554.96875 C 236.820312 554.96875 148.351562 561.988281 98.941406 566.429688 C 97.847656 566.527344 96.75 566.59375 95.65625 566.632812 C 94.558594 566.671875 93.460938 566.679688 92.363281 566.65625 C 91.265625 566.636719 90.167969 566.585938 89.074219 566.503906 C 87.980469 566.421875 86.886719 566.308594 85.800781 566.171875 C 84.710938 566.03125 83.628906 565.859375 82.546875 565.660156 C 81.46875 565.460938 80.394531 565.230469 79.328125 564.972656 C 78.261719 564.714844 77.203125 564.429688 76.152344 564.113281 C 75.097656 563.796875 74.058594 563.453125 73.023438 563.082031 C 71.992188 562.710938 70.96875 562.3125 69.960938 561.882812 C 68.949219 561.457031 67.949219 561 66.964844 560.519531 C 65.976562 560.039062 65.003906 559.53125 64.046875 558.996094 C 63.085938 558.460938 62.144531 557.898438 61.214844 557.3125 C 60.289062 556.726562 59.375 556.117188 58.480469 555.484375 C 57.585938 554.847656 56.707031 554.1875 55.847656 553.503906 C 54.988281 552.820312 54.148438 552.117188 53.328125 551.386719 C 52.507812 550.65625 51.707031 549.90625 50.929688 549.136719 C 50.148438 548.363281 49.390625 547.570312 48.652344 546.757812 C 47.914062 545.941406 47.199219 545.109375 46.507812 544.257812 C 45.816406 543.40625 45.148438 542.535156 44.503906 541.648438 C 43.859375 540.757812 43.242188 539.851562 42.644531 538.929688 C 42.050781 538.007812 41.480469 537.070312 40.9375 536.117188 C 40.390625 535.164062 39.875 534.195312 39.382812 533.214844 C 38.890625 532.234375 38.425781 531.238281 37.988281 530.234375 C 37.550781 529.226562 37.140625 528.210938 36.757812 527.179688 C 36.375 526.152344 36.023438 525.113281 35.695312 524.066406 C 35.371094 523.015625 35.074219 521.960938 34.804688 520.894531 C 34.535156 519.832031 34.296875 518.761719 34.085938 517.683594 C 33.875 516.605469 33.695312 515.523438 33.542969 514.4375 C 33.390625 513.351562 33.269531 512.257812 33.175781 511.164062 C 33.085938 510.070312 33.023438 508.976562 32.988281 507.878906 C 32.957031 506.78125 32.953125 505.683594 32.980469 504.585938 C 33.007812 503.488281 33.0625 502.394531 33.148438 501.300781 Z M 226.078125 281.371094 L 99.75 407.671875 C 97.648438 445.378906 94.980469 481.019531 93 506.070312 L 93 506.21875 C 93 506.28125 93.058594 506.371094 93.179688 506.488281 C 93.25 506.554688 93.332031 506.605469 93.421875 506.640625 L 93.601562 506.640625 C 142.949219 502.289062 233.851562 495 300 495 C 352.738281 495 421.171875 499.621094 471.78125 503.699219 L 226.019531 281.398438 Z M 226.078125 281.371094 " fill-opacity="1" fill-rule="evenodd"/></svg>